<?xml version="1.0" encoding="UTF-8" standalone="no"?>
<!-- Created with Inkscape (http://www.inkscape.org/) -->

<svg
   xmlns:dc="http://purl.org/dc/elements/1.1/"
   xmlns:cc="http://creativecommons.org/ns#"
   xmlns:rdf="http://www.w3.org/1999/02/22-rdf-syntax-ns#"
   xmlns:svg="http://www.w3.org/2000/svg"
   xmlns="http://www.w3.org/2000/svg"
   xmlns:xlink="http://www.w3.org/1999/xlink"
   xmlns:sodipodi="http://sodipodi.sourceforge.net/DTD/sodipodi-0.dtd"
   xmlns:inkscape="http://www.inkscape.org/namespaces/inkscape"
   version="1.1"
   id="svg815"
   xml:space="preserve"
   width="1347.9093"
   height="250"
   viewBox="0 0 1347.9093 250"
   sodipodi:docname="rlille_rconsortium_textwhite.svg"
   inkscape:version="0.92.4 (5da689c313, 2019-01-14)"
   inkscape:export-filename="D:\Profils\mcanouil\PROJECTS\logos\rlille_rconsortium_textwhite.png"
   inkscape:export-xdpi="1278"
   inkscape:export-ydpi="1278"><metadata
     id="metadata821"><rdf:RDF><cc:Work
         rdf:about=""><dc:format>image/svg+xml</dc:format><dc:type
           rdf:resource="http://purl.org/dc/dcmitype/StillImage" /><dc:title></dc:title></cc:Work></rdf:RDF></metadata><defs
     id="defs819"><clipPath
       clipPathUnits="userSpaceOnUse"
       id="clipPath831"><path
         d="M 0,612 H 792 V 0 H 0 Z"
         id="path829"
         inkscape:connector-curvature="0" /></clipPath><clipPath
       clipPathUnits="userSpaceOnUse"
       id="clipPath1520"><g
         id="use1522"
         inkscape:label="Clip"><path
   sodipodi:type="star"
   id="path1727"
   sodipodi:sides="6"
   sodipodi:cx="89.368446"
   sodipodi:cy="104.91249"
   sodipodi:r1="25.4"
   sodipodi:r2="21.997046"
   sodipodi:arg1="1.5707963"
   sodipodi:arg2="2.0943951"
   inkscape:flatsided="true"
   inkscape:rounded="0"
   inkscape:randomized="0"
   d="m 89.368447,130.31249 -21.997045,-12.7 -10e-7,-25.399998 21.997045,-12.700001 21.997044,12.699999 0,25.4 z"
   style="display:inline;fill:#f2f2f2;fill-opacity:1;stroke:#d40000;stroke-width:1.67302895;stroke-miterlimit:4;stroke-dasharray:none;stroke-opacity:1"
   inkscape:transform-center-x="5.3517392e-06"
   transform="matrix(0.96129681,0,0,0.96335718,-63.959602,-75.668201)"
   inkscape:export-xdpi="1278.5"
   inkscape:export-ydpi="1278.5"
   inkscape:transform-center-y="3.0257205e-06" /><path
   id="path1729"
   d="m 30.698916,43.86135 c 0.517002,-1.80956 0.436687,-3.568007 -0.239326,-5.240719 -0.216458,-0.535556 -0.965353,-1.375179 -1.51383,-1.697229 -1.484462,-0.871599 -3.595856,-0.658645 -5.775849,0.582618 -0.570823,0.325106 -1.054711,0.561625 -1.075162,0.525753 -0.02044,-0.03586 0.140667,-0.784293 0.358071,-1.663138 0.561992,-2.272052 1.20254,-3.56363 1.986728,-4.005862 0.789344,-0.444983 1.731994,-0.338858 3.103096,0.349939 1.236791,0.621318 1.762749,1.117178 2.585398,2.43715 0.752117,1.206893 1.256046,2.350826 1.382117,3.137462 0.08833,0.551199 0.113388,2.807727 0.04062,3.665955 -0.02469,0.291607 -0.138962,0.917704 -0.253873,1.391355 -0.182719,0.752813 -0.245633,0.882035 -0.50003,1.027067 l -0.291046,0.165925 0.193211,-0.676267 z m 1.940368,-1.265442 c 0.02827,-0.417811 0.01419,-1.36926 -0.03133,-2.114354 C 32.481987,38.417873 32.0388,36.850168 31.006494,34.816834 30.118173,33.067088 29.21016,31.819419 26.40567,28.49493 l -0.91834,-1.088574 0.500866,-1.706673 c 0.555045,-1.892324 1.888561,-6.008363 1.981175,-6.115253 0.03221,-0.03732 1.309051,0.766377 2.836228,1.786745 l 2.777247,1.854876 -0.12725,1.036558 c -0.07,0.570097 -0.216407,1.579792 -0.325396,2.243705 -0.71049,4.32882 -0.657348,8.132146 0.154112,11.045517 0.119393,0.428622 0.457284,1.148702 1.121464,2.389944 l 0.950568,1.77645 -1.384462,0.818781 -1.384463,0.818781 0.05139,-0.759666 z m 4.031669,-1.650127 c -0.202461,0.07795 -0.297599,0.03912 -0.589327,-0.240361 -1.009227,-0.966885 -1.936393,-2.549733 -2.359693,-4.028453 -0.233082,-0.81422 -0.380979,-2.159921 -0.341079,-3.103463 0.09701,-2.294318 0.898293,-4.984016 1.909526,-6.409802 0.290541,-0.409644 0.448966,-0.540822 1.111107,-0.919977 0.923216,-0.528838 1.315873,-0.575176 2.247319,-0.266117 0.713799,0.236819 1.885205,1.010881 2.446561,1.616648 l 0.401529,0.433324 -1.113883,0.635023 c -2.49476,1.422263 -3.993668,2.870569 -4.702676,4.543977 -0.151711,0.358063 -0.444012,1.22353 -0.649555,1.923258 -0.703152,2.393506 -0.380027,3.34221 1.878242,5.514692 0.0871,0.08379 0.123494,0.164948 0.08088,0.180354 -0.04263,0.01539 -0.186132,0.06984 -0.318927,0.120939 z"
   inkscape:connector-curvature="0"
   style="display:inline;fill:#d40000;stroke-width:0.07494193" /><g
   id="g1735"
   transform="matrix(1.2074805,0,0,1.2074805,-4.0974254,-3.9081928)"><path
     id="path1731"
     d="m 21.571716,17.315293 c -4.142124,0 -7.500001,-2.248854 -7.500001,-5.022951 0,-2.7741197 3.357877,-5.0229727 7.500001,-5.0229727 4.142143,0 7.5,2.248853 7.5,5.0229727 0,2.774097 -3.357857,5.022951 -7.5,5.022951 z m 1.148005,-8.0821167 c -3.148382,0 -5.700651,1.5374137 -5.700651,3.4339087 0,1.896493 2.552269,3.433908 5.700651,3.433908 3.148362,0 5.471812,-1.051091 5.471812,-3.433908 0,-2.382069 -2.32345,-3.4339087 -5.471812,-3.4339087 z"
     style="fill:url(#linearGradient1743);fill-rule:evenodd;stroke-width:0.02080173"
     inkscape:connector-curvature="0" /><path
     id="path1733"
     d="m 25.493819,15.049215 c 0,0 0.453935,0.13698 0.71766,0.270423 0.09151,0.0463 0.249828,0.138706 0.36403,0.260021 0.111871,0.11882 0.166414,0.23922 0.166414,0.23922 l 1.788948,3.016251 -2.89144,0.0013 -1.352112,-2.539101 c 0,0 -0.276871,-0.475715 -0.447237,-0.613651 -0.142118,-0.115054 -0.202713,-0.156013 -0.343229,-0.156013 -0.09781,0 -0.686998,0 -0.686998,0 l 5.63e-4,3.306933 -2.558612,0.0011 v -8.447323 h 5.138016 c 0,0 2.340195,0.04221 2.340195,2.268679 0,2.226471 -2.236186,2.392198 -2.236186,2.392198 z m -1.112893,-2.828535 -1.548958,-10e-4 -7.88e-4,1.436359 1.549729,-4.87e-4 c 0,0 0.71766,-0.0022 0.71766,-0.730661 0,-0.743079 -0.71766,-0.704201 -0.71766,-0.704201 z"
     style="fill:#d40000;fill-rule:evenodd;stroke-width:0.02080173"
     inkscape:connector-curvature="0" /></g><text
   xml:space="preserve"
   style="font-style:normal;font-weight:normal;font-size:10.58333302px;line-height:1.25;font-family:sans-serif;letter-spacing:0px;word-spacing:0px;fill:#d40000;fill-opacity:1;stroke:none;stroke-width:0.26458332"
   x="3.4215865"
   y="28.919029"
   id="text1739"><tspan
     sodipodi:role="line"
     id="tspan1737"
     x="3.4215865"
     y="28.919029"
     style="font-style:normal;font-variant:normal;font-weight:normal;font-stretch:normal;font-family:'Harlow Solid Italic';-inkscape-font-specification:'Harlow Solid Italic, ';fill:#d40000;stroke-width:0.26458332">Lille</tspan></text>

</g></clipPath><linearGradient
       gradientTransform="matrix(0.02541851,0,0,0.01702349,14.052869,7.2069643)"
       id="gradientFill-1"
       x1="0.7414425"
       x2="590.86261"
       y1="3.6658268"
       y2="593.78699"
       gradientUnits="userSpaceOnUse"
       spreadMethod="pad"><stop
         offset="0"
         stop-color="rgb(203,206,208)"
         stop-opacity="1"
         id="stop2" /><stop
         offset="1"
         stop-color="rgb(132,131,139)"
         stop-opacity="1"
         id="stop4" /></linearGradient><linearGradient
       inkscape:collect="always"
       xlink:href="#gradientFill-1"
       id="linearGradient1743"
       gradientUnits="userSpaceOnUse"
       gradientTransform="matrix(0.02541851,0,0,0.01702349,14.052869,7.2069643)"
       x1="0.7414425"
       y1="3.6658268"
       x2="590.86261"
       y2="593.78699"
       spreadMethod="pad" /><linearGradient
       inkscape:collect="always"
       xlink:href="#gradientFill-1"
       id="linearGradient2397"
       gradientUnits="userSpaceOnUse"
       gradientTransform="matrix(0.02541851,0,0,0.01702349,14.052869,7.2069643)"
       x1="0.7414425"
       y1="3.6658268"
       x2="590.86261"
       y2="593.78699"
       spreadMethod="pad" /></defs><sodipodi:namedview
     pagecolor="#ffffff"
     bordercolor="#666666"
     borderopacity="1"
     objecttolerance="10"
     gridtolerance="10"
     guidetolerance="10"
     inkscape:pageopacity="0"
     inkscape:pageshadow="2"
     inkscape:window-width="1920"
     inkscape:window-height="1017"
     id="namedview817"
     showgrid="false"
     inkscape:zoom="0.89393939"
     inkscape:cx="978.86317"
     inkscape:cy="-23.65202"
     inkscape:window-x="-8"
     inkscape:window-y="-8"
     inkscape:window-maximized="1"
     inkscape:current-layer="g827" /><g
     id="g823"
     inkscape:groupmode="layer"
     inkscape:label="RConsortium_Horizontal_Pantone"
     transform="matrix(1.3333333,0,0,-1.3333333,-141.95528,552.72397)"><g
       id="g825"
       transform="matrix(1.9683987,0,0,1.9683987,-66.263637,-281.39895)"><g
         id="g827"
         clip-path="url(#clipPath831)"><g
           id="g833"
           transform="translate(291.2148,289.8965)"
           style="fill:#fdfdfd;fill-opacity:1"><path
             d="m 0,0 c -3.075,2.563 -4.612,5.894 -4.612,9.994 v 3.075 c 0,4.1 1.537,7.431 4.612,9.994 3.075,2.562 6.673,3.844 10.793,3.844 4.92,0 9.01,-1.743 12.27,-5.228 l -6.15,-4.613 c -1.845,1.846 -3.895,2.768 -6.15,2.768 -2.051,0 -3.844,-0.82 -5.382,-2.46 -1.537,-1.64 -2.306,-3.588 -2.306,-5.843 0,-2.255 0.717,-4.202 2.153,-5.843 1.435,-1.639 3.279,-2.459 5.535,-2.459 2.255,0 4.305,0.922 6.15,2.767 l 6.15,-4.612 c -3.28,-3.486 -7.38,-5.228 -12.3,-5.228 C 6.663,-3.844 3.075,-2.563 0,0"
             style="fill:#fdfdfd;fill-opacity:1;fill-rule:nonzero;stroke:none"
             id="path835"
             inkscape:connector-curvature="0" /></g><g
           id="g837"
           transform="translate(334.2964,293.1865)"
           style="fill:#fdfdfd;fill-opacity:1"><path
             d="m 0,0 c 2.337,0 4.233,0.784 5.689,2.353 1.455,1.568 2.183,3.521 2.183,5.858 0,2.337 -0.728,4.294 -2.183,5.873 -1.456,1.578 -3.362,2.368 -5.72,2.368 -2.317,0 -4.202,-0.79 -5.658,-2.368 -1.456,-1.579 -2.183,-3.536 -2.183,-5.873 0,-2.337 0.727,-4.29 2.183,-5.858 C -4.233,0.784 -2.337,0 0,0 m -11.162,-2.937 c -2.994,3.003 -4.49,6.73 -4.49,11.178 0,4.469 1.496,8.2 4.49,11.194 2.993,2.992 6.724,4.489 11.193,4.489 4.469,0 8.199,-1.497 11.193,-4.489 2.993,-2.994 4.489,-6.725 4.489,-11.194 0,-4.469 -1.496,-8.2 -4.489,-11.193 C 8.23,-5.945 4.5,-7.441 0.031,-7.441 c -4.469,0 -8.2,1.502 -11.193,4.504"
             style="fill:#fdfdfd;fill-opacity:1;fill-rule:nonzero;stroke:none"
             id="path839"
             inkscape:connector-curvature="0" /></g><g
           id="g841"
           transform="translate(364.4629,305.6099)"
           style="fill:#fdfdfd;fill-opacity:1"><path
             d="M 0,0 V -19.557 H -8.61 V 10.301 L 0,11.224 V 8.426 c 2.07,1.845 4.53,2.767 7.38,2.767 3.894,0 6.867,-1.179 8.917,-3.536 2.05,-2.358 3.075,-5.074 3.075,-8.149 v -19.065 h -8.609 v 16.913 c 0,2.049 -0.513,3.638 -1.538,4.766 C 8.199,3.249 6.651,3.844 4.581,3.905 2.798,3.782 1.271,2.48 0,0"
             style="fill:#fdfdfd;fill-opacity:1;fill-rule:nonzero;stroke:none"
             id="path843"
             inkscape:connector-curvature="0" /></g><g
           id="g845"
           transform="translate(408.4355,315.9419)"
           style="fill:#fdfdfd;fill-opacity:1"><path
             d="m 0,0 c 1.599,-0.697 3.095,-1.732 4.489,-3.105 l -4.797,-5.413 c -1.394,1.661 -3.136,2.491 -5.227,2.491 -2.071,0 -3.455,-0.384 -4.152,-1.153 -0.697,-0.769 -0.697,-1.466 0,-2.091 0.697,-0.625 2.081,-1.143 4.152,-1.553 3.055,-0.288 5.555,-1.158 7.503,-2.614 1.947,-1.456 2.921,-3.987 2.921,-7.595 0,-2.911 -1.148,-5.166 -3.444,-6.765 -2.297,-1.599 -4.971,-2.399 -8.026,-2.399 -2.911,0 -5.335,0.415 -7.273,1.245 -1.937,0.831 -3.602,1.943 -4.997,3.337 l 4.767,5.381 c 1.394,-1.66 3.557,-2.624 6.488,-2.891 2.358,0 3.88,0.385 4.567,1.154 0.686,0.768 0.789,1.538 0.307,2.306 -0.481,0.769 -2.106,1.287 -4.874,1.553 -2.501,0.287 -4.792,1.056 -6.873,2.307 -2.08,1.25 -3.121,3.607 -3.121,7.072 0,3.177 1.185,5.602 3.552,7.273 2.368,1.67 4.802,2.506 7.304,2.506 C -3.844,1.046 -1.6,0.697 0,0"
             style="fill:#fdfdfd;fill-opacity:1;fill-rule:nonzero;stroke:none"
             id="path847"
             inkscape:connector-curvature="0" /></g><g
           id="g849"
           transform="translate(433.4658,293.1865)"
           style="fill:#fdfdfd;fill-opacity:1"><path
             d="m 0,0 c 2.337,0 4.233,0.784 5.688,2.353 1.457,1.568 2.184,3.521 2.184,5.858 0,2.337 -0.727,4.294 -2.184,5.873 -1.455,1.578 -3.362,2.368 -5.718,2.368 -2.318,0 -4.203,-0.79 -5.658,-2.368 -1.457,-1.579 -2.184,-3.536 -2.184,-5.873 0,-2.337 0.727,-4.29 2.184,-5.858 C -4.233,0.784 -2.337,0 0,0 m -11.162,-2.937 c -2.993,3.003 -4.489,6.73 -4.489,11.178 0,4.469 1.496,8.2 4.489,11.194 2.993,2.992 6.724,4.489 11.193,4.489 4.469,0 8.199,-1.497 11.193,-4.489 2.993,-2.994 4.49,-6.725 4.49,-11.194 0,-4.469 -1.497,-8.2 -4.49,-11.193 C 8.23,-5.945 4.5,-7.441 0.031,-7.441 c -4.469,0 -8.2,1.502 -11.193,4.504"
             style="fill:#fdfdfd;fill-opacity:1;fill-rule:nonzero;stroke:none"
             id="path851"
             inkscape:connector-curvature="0" /></g><g
           id="g853"
           transform="translate(462.9561,313.4204)"
           style="fill:#fdfdfd;fill-opacity:1"><path
             d="M 0,0 C 2.193,2.255 4.868,3.383 8.025,3.383 9.03,3.383 9.983,3.3 10.886,3.137 L 9.532,-5.351 C 8.527,-4.449 7.093,-3.967 5.228,-3.905 3.137,-4.049 1.394,-5.566 0,-8.456 V -27.368 H -8.61 V 2.491 L 0,3.414 Z"
             style="fill:#fdfdfd;fill-opacity:1;fill-rule:nonzero;stroke:none"
             id="path855"
             inkscape:connector-curvature="0" /></g><g
           id="g857"
           transform="translate(493.3994,286.0527)"
           style="fill:#fdfdfd;fill-opacity:1"><path
             d="m 0,0 c -3.485,0 -6.253,0.974 -8.303,2.921 -2.051,1.947 -3.075,4.459 -3.075,7.534 V 23.77 h -4.612 v 6.95 h 4.612 v 8.333 l 8.641,0.923 V 30.72 H 1.875 V 23.77 H -2.737 V 11.686 c 0,-1.641 0.342,-2.794 1.03,-3.46 0.686,-0.666 1.573,-0.999 2.66,-0.999 0.327,0 1.096,0.132 2.306,0.399 L 5.073,1.445 C 3.598,0.481 1.906,0 0,0"
             style="fill:#fdfdfd;fill-opacity:1;fill-rule:nonzero;stroke:none"
             id="path859"
             inkscape:connector-curvature="0" /></g><path
           d="m 512.311,316.834 h -8.61 v -30.781 h 8.61 z m -7.689,10.439 c 0.82,0.831 1.927,1.246 3.321,1.246 1.477,0 2.624,-0.415 3.445,-1.246 0.819,-0.83 1.229,-1.86 1.229,-3.09 0,-1.23 -0.41,-2.255 -1.229,-3.075 -0.821,-0.82 -1.949,-1.23 -3.383,-1.23 -1.435,0 -2.563,0.41 -3.383,1.23 -0.819,0.82 -1.229,1.845 -1.229,3.075 0,1.23 0.41,2.26 1.229,3.09"
           style="fill:#fdfdfd;fill-opacity:1;fill-rule:nonzero;stroke:none"
           id="path861"
           inkscape:connector-curvature="0" /><g
           id="g863"
           transform="translate(538.3555,296.9687)"
           style="fill:#fdfdfd;fill-opacity:1"><path
             d="M 0,0 V 19.865 H 8.61 V -10.916 H 0 v 2.798 c -2.07,-1.845 -4.53,-2.768 -7.38,-2.768 -3.895,0 -6.868,1.179 -8.918,3.537 -2.05,2.357 -3.074,5.074 -3.074,8.149 v 19.065 h 8.609 V 2.952 c 0,-2.05 0.513,-3.639 1.538,-4.765 1.025,-1.128 2.573,-1.723 4.644,-1.785 C -2.798,-3.475 -1.271,-2.275 0,0"
             style="fill:#fdfdfd;fill-opacity:1;fill-rule:nonzero;stroke:none"
             id="path865"
             inkscape:connector-curvature="0" /></g><g
           id="g867"
           transform="translate(562.8945,305.7329)"
           style="fill:#fdfdfd;fill-opacity:1"><path
             d="M 0,0 V -19.68 H -8.61 V 10.178 L 0,11.101 V 8.364 c 1.927,1.804 4.387,2.706 7.38,2.706 3.894,0 6.867,-1.179 8.917,-3.536 2.255,2.357 5.638,3.536 10.148,3.536 3.895,0 6.868,-1.179 8.917,-3.536 2.05,-2.358 3.076,-5.074 3.076,-8.149 V -19.68 h -8.611 v 16.913 c 0,2.049 -0.461,3.638 -1.384,4.766 C 27.521,3.126 26.024,3.721 23.954,3.782 22.252,3.659 20.776,2.532 19.526,0.4 19.423,-0.236 19.372,-0.881 19.372,-1.538 V -19.68 h -8.609 v 16.913 c 0,2.049 -0.462,3.638 -1.384,4.766 C 8.456,3.126 6.959,3.721 4.889,3.782 3.003,3.659 1.373,2.398 0,0"
             style="fill:#fdfdfd;fill-opacity:1;fill-rule:nonzero;stroke:none"
             id="path869"
             inkscape:connector-curvature="0" /></g><g
           id="g871"
           transform="translate(233.1465,306.4741)"><path
             d="m 0,0 c 1.131,1.014 1.697,2.623 1.697,4.828 0,2.203 -0.585,3.716 -1.756,4.535 -1.17,0.82 -3.218,1.229 -6.145,1.229 H -13.05 V -1.521 h 6.671 c 3.121,0 5.247,0.506 6.379,1.521 m 11.002,4.857 c 0,-6.554 -2.595,-10.788 -7.784,-12.699 l 10.359,-14.63 H 2.341 l -9.071,13.05 h -6.32 v -13.05 h -9.13 v 40.906 h 15.509 c 6.358,0 10.894,-1.074 13.606,-3.219 2.711,-2.146 4.067,-5.598 4.067,-10.358"
             style="fill:#0047bb;fill-opacity:1;fill-rule:nonzero;stroke:none"
             id="path873"
             inkscape:connector-curvature="0" /></g><g
           id="g875"
           transform="translate(225.6526,343.3663)"><path
             d="m 0,0 c -2.82,0 -5.096,2.276 -5.112,5.096 0,2.802 2.276,5.095 5.079,5.095 C 2.787,10.208 5.079,7.932 5.079,5.112 5.096,2.31 2.82,0.017 0,0 m 18.719,-4.943 c -2.43,1.41 -3.279,4.518 -1.886,6.964 1.41,2.446 4.535,3.279 6.965,1.885 2.445,-1.392 3.278,-4.517 1.884,-6.963 -0.934,-1.631 -2.649,-2.548 -4.432,-2.548 -0.849,0 -1.733,0.203 -2.531,0.662 m -58.023,-15.728 c -2.447,1.41 -3.278,4.517 -1.886,6.964 1.41,2.446 4.519,3.278 6.965,1.868 2.445,-1.393 3.278,-4.518 1.868,-6.947 h 0.016 c -0.95,-1.648 -2.665,-2.565 -4.432,-2.565 -0.867,0 -1.733,0.221 -2.531,0.68 m 76.86,-16.799 v 0.204 c -0.017,2.819 2.259,5.095 5.079,5.112 2.801,0.017 5.095,-2.259 5.112,-5.078 v -0.12 -0.084 c 0,-2.803 -2.276,-5.079 -5.096,-5.079 -2.803,0 -5.079,2.259 -5.095,5.045 m -78.643,-23.848 c -1.41,2.429 -0.577,5.554 1.851,6.964 2.428,1.41 5.537,0.578 6.963,-1.851 1.41,-2.429 0.596,-5.554 -1.851,-6.964 -0.798,-0.459 -1.682,-0.679 -2.547,-0.679 -1.767,0 -3.466,0.9 -4.416,2.53 m 58.091,-15.491 c -1.41,2.429 -0.579,5.554 1.868,6.964 2.428,1.41 5.536,0.578 6.946,-1.851 1.41,-2.429 0.578,-5.554 -1.851,-6.964 -0.798,-0.475 -1.682,-0.697 -2.548,-0.697 -1.75,0 -3.465,0.918 -4.415,2.548 m -40.648,-1.902 v 0 c -2.428,1.409 -3.277,4.518 -1.867,6.964 1.409,2.429 4.518,3.262 6.963,1.868 2.43,-1.41 3.279,-4.517 1.869,-6.964 -0.952,-1.63 -2.667,-2.548 -4.417,-2.548 -0.866,0 -1.748,0.222 -2.548,0.68"
             style="fill:#0047bb;fill-opacity:1;fill-rule:nonzero;stroke:none"
             id="path877"
             inkscape:connector-curvature="0" /></g><g
           id="g879"
           transform="translate(220.7278,263.3983)"><path
             d="m 0,0 c 0,2.82 2.276,5.096 5.096,5.096 2.801,0.017 5.095,-2.26 5.095,-5.079 0,-2.819 -2.275,-5.095 -5.095,-5.113 C 2.276,-5.096 0,-2.802 0,0"
             style="fill:#979dde;fill-opacity:1;fill-rule:nonzero;stroke:none"
             id="path881"
             inkscape:connector-curvature="0" /></g><g
           id="g883"
           transform="translate(260.0665,280.2653)"><path
             d="M 0,0 C -2.43,1.41 -3.263,4.535 -1.853,6.964 -0.443,9.41 2.666,10.242 5.112,8.832 7.541,7.422 8.373,4.297 6.963,1.869 6.03,0.237 4.314,-0.679 2.548,-0.679 1.68,-0.679 0.814,-0.459 0,0"
             style="fill:#979dde;fill-opacity:1;fill-rule:nonzero;stroke:none"
             id="path885"
             inkscape:connector-curvature="0" /></g><g
           id="g887"
           transform="translate(178.1445,305.8456)"><path
             d="m 0,0 c 0,2.802 2.276,5.096 5.079,5.096 2.82,0.016 5.112,-2.26 5.112,-5.079 0,-2.82 -2.275,-5.096 -5.079,-5.113 C 2.292,-5.096 0.017,-2.82 0,0"
             style="fill:#979dde;fill-opacity:1;fill-rule:nonzero;stroke:none"
             id="path889"
             inkscape:connector-curvature="0" /></g><g
           id="g891"
           transform="translate(258.1291,324.7843)"><path
             d="M 0,0 C -1.41,2.428 -0.594,5.537 1.835,6.964 4.263,8.373 7.39,7.558 8.8,5.13 10.226,2.7 9.393,-0.425 6.965,-1.835 6.166,-2.31 5.283,-2.531 4.417,-2.531 2.651,-2.531 0.952,-1.631 0,0"
             style="fill:#979dde;fill-opacity:1;fill-rule:nonzero;stroke:none"
             id="path893"
             inkscape:connector-curvature="0" /></g><g
           id="g895"
           transform="translate(200.0051,340.1559)"><path
             d="M 0,0 C -1.427,2.429 -0.594,5.554 1.835,6.964 4.263,8.391 7.388,7.559 8.798,5.13 10.225,2.701 9.393,-0.425 6.963,-1.835 6.166,-2.31 5.283,-2.53 4.399,-2.53 2.649,-2.53 0.95,-1.631 0,0"
             style="fill:#979dde;fill-opacity:1;fill-rule:nonzero;stroke:none"
             id="path897"
             inkscape:connector-curvature="0" /></g></g></g><g
       id="g2408"
       transform="matrix(1.3020935,0,0,1.3020935,-247.30619,173.31434)"><g
         id="layer1"
         style="display:inline"
         transform="matrix(2.8346458,0,0,-2.8346458,271.69479,883.15257)"><path
           id="path3733"
           d="m 89.368447,130.31249 -21.997045,-12.7 -10e-7,-25.399998 21.997045,-12.700001 21.997044,12.699999 v 25.4 z"
           style="fill:#f2f2f2;fill-opacity:1;stroke:#d40000;stroke-width:1.67302895;stroke-miterlimit:4;stroke-dasharray:none;stroke-opacity:1"
           transform="matrix(0.96129681,0,0,0.96335717,-63.959602,170.53182)"
           inkscape:connector-curvature="0" /></g><g
         id="layer3"
         transform="matrix(2.8346458,0,0,-2.8346458,271.69479,185.26276)"><path
   id="path3399"
   d="m 30.698916,43.86135 c 0.517002,-1.80956 0.436687,-3.568007 -0.239326,-5.240719 -0.216458,-0.535556 -0.965353,-1.375179 -1.51383,-1.697229 -1.484462,-0.871599 -3.595856,-0.658645 -5.775849,0.582618 -0.570823,0.325106 -1.054711,0.561625 -1.075162,0.525753 -0.02044,-0.03586 0.140667,-0.784293 0.358071,-1.663138 0.561992,-2.272052 1.20254,-3.56363 1.986728,-4.005862 0.789344,-0.444983 1.731994,-0.338858 3.103096,0.349939 1.236791,0.621318 1.762749,1.117178 2.585398,2.43715 0.752117,1.206893 1.256046,2.350826 1.382117,3.137462 0.08833,0.551199 0.113388,2.807727 0.04062,3.665955 -0.02469,0.291607 -0.138962,0.917704 -0.253873,1.391355 -0.182719,0.752813 -0.245633,0.882035 -0.50003,1.027067 l -0.291046,0.165925 0.193211,-0.676267 z m 1.940368,-1.265442 c 0.02827,-0.417811 0.01419,-1.36926 -0.03133,-2.114354 C 32.481987,38.417873 32.0388,36.850168 31.006494,34.816834 30.118173,33.067088 29.21016,31.819419 26.40567,28.49493 l -0.91834,-1.088574 0.500866,-1.706673 c 0.555045,-1.892324 1.888561,-6.008363 1.981175,-6.115253 0.03221,-0.03732 1.309051,0.766377 2.836228,1.786745 l 2.777247,1.854876 -0.12725,1.036558 c -0.07,0.570097 -0.216407,1.579792 -0.325396,2.243705 -0.71049,4.32882 -0.657348,8.132146 0.154112,11.045517 0.119393,0.428622 0.457284,1.148702 1.121464,2.389944 l 0.950568,1.77645 -1.384462,0.818781 -1.384463,0.818781 0.05139,-0.759666 z m 4.031669,-1.650127 c -0.202461,0.07795 -0.297599,0.03912 -0.589327,-0.240361 -1.009227,-0.966885 -1.936393,-2.549733 -2.359693,-4.028453 -0.233082,-0.81422 -0.380979,-2.159921 -0.341079,-3.103463 0.09701,-2.294318 0.898293,-4.984016 1.909526,-6.409802 0.290541,-0.409644 0.448966,-0.540822 1.111107,-0.919977 0.923216,-0.528838 1.315873,-0.575176 2.247319,-0.266117 0.713799,0.236819 1.885205,1.010881 2.446561,1.616648 l 0.401529,0.433324 -1.113883,0.635023 c -2.49476,1.422263 -3.993668,2.870569 -4.702676,4.543977 -0.151711,0.358063 -0.444012,1.22353 -0.649555,1.923258 -0.703152,2.393506 -0.380027,3.34221 1.878242,5.514692 0.0871,0.08379 0.123494,0.164948 0.08088,0.180354 -0.04263,0.01539 -0.186132,0.06984 -0.318927,0.120939 z"
   style="display:inline;fill:#d40000;stroke-width:0.07494193"
   inkscape:connector-curvature="0" /><g
   id="g866"
   transform="matrix(1.2074805,0,0,1.2074805,-4.0974254,-3.9081928)"><path
     id="path14"
     d="m 21.571716,17.315293 c -4.142124,0 -7.500001,-2.248854 -7.500001,-5.022951 0,-2.7741197 3.357877,-5.0229727 7.500001,-5.0229727 4.142143,0 7.5,2.248853 7.5,5.0229727 0,2.774097 -3.357857,5.022951 -7.5,5.022951 z m 1.148005,-8.0821167 c -3.148382,0 -5.700651,1.5374137 -5.700651,3.4339087 0,1.896493 2.552269,3.433908 5.700651,3.433908 3.148362,0 5.471812,-1.051091 5.471812,-3.433908 0,-2.382069 -2.32345,-3.4339087 -5.471812,-3.4339087 z"
     style="fill:url(#linearGradient2397);fill-rule:evenodd;stroke-width:0.02080173"
     inkscape:connector-curvature="0" /><path
     id="path16"
     d="m 25.493819,15.049215 c 0,0 0.453935,0.13698 0.71766,0.270423 0.09151,0.0463 0.249828,0.138706 0.36403,0.260021 0.111871,0.11882 0.166414,0.23922 0.166414,0.23922 l 1.788948,3.016251 -2.89144,0.0013 -1.352112,-2.539101 c 0,0 -0.276871,-0.475715 -0.447237,-0.613651 -0.142118,-0.115054 -0.202713,-0.156013 -0.343229,-0.156013 -0.09781,0 -0.686998,0 -0.686998,0 l 5.63e-4,3.306933 -2.558612,0.0011 v -8.447323 h 5.138016 c 0,0 2.340195,0.04221 2.340195,2.268679 0,2.226471 -2.236186,2.392198 -2.236186,2.392198 z m -1.112893,-2.828535 -1.548958,-10e-4 -7.88e-4,1.436359 1.549729,-4.87e-4 c 0,0 0.71766,-0.0022 0.71766,-0.730661 0,-0.743079 -0.71766,-0.704201 -0.71766,-0.704201 z"
     style="fill:#d40000;fill-rule:evenodd;stroke-width:0.02080173"
     inkscape:connector-curvature="0" /></g><text
   xml:space="preserve"
   style="font-style:normal;font-weight:normal;font-size:10.58333302px;line-height:1.25;font-family:sans-serif;letter-spacing:0px;word-spacing:0px;fill:#d40000;fill-opacity:1;stroke:none;stroke-width:0.26458332"
   x="3.4215865"
   y="28.919029"
   id="text860"><tspan
     id="tspan858"
     x="3.4215865"
     y="28.919029"
     style="font-style:normal;font-variant:normal;font-weight:normal;font-stretch:normal;font-family:'Harlow Solid Italic';-inkscape-font-specification:'Harlow Solid Italic, ';fill:#d40000;stroke-width:0.26458332">Lille</tspan></text>

</g></g></g></svg>