<?xml version="1.0" encoding="UTF-8" standalone="no"?>
<svg
   xmlns:dc="http://purl.org/dc/elements/1.1/"
   xmlns:cc="http://creativecommons.org/ns#"
   xmlns:rdf="http://www.w3.org/1999/02/22-rdf-syntax-ns#"
   xmlns:svg="http://www.w3.org/2000/svg"
   xmlns="http://www.w3.org/2000/svg"
   xmlns:sodipodi="http://sodipodi.sourceforge.net/DTD/sodipodi-0.dtd"
   xmlns:inkscape="http://www.inkscape.org/namespaces/inkscape"
   id="svg8"
   version="1.1"
   viewBox="0 0 43.899999 50.799998"
   height="5.0799999cm"
   width="4.3899999cm"
   sodipodi:docname="rlille.svg"
   inkscape:export-filename="D:\Profils\mcanouil\PROJECTS\logos\rlille2.png"
   inkscape:export-xdpi="1278.679"
   inkscape:export-ydpi="1278.679"
   inkscape:version="0.92.4 (5da689c313, 2019-01-14)">
  <sodipodi:namedview
     pagecolor="#ffffff"
     bordercolor="#666666"
     borderopacity="1"
     objecttolerance="10"
     gridtolerance="10"
     guidetolerance="10"
     inkscape:pageopacity="0"
     inkscape:pageshadow="2"
     inkscape:window-width="1920"
     inkscape:window-height="1017"
     id="namedview32"
     showgrid="false"
     inkscape:zoom="9.8333335"
     inkscape:cx="103.03565"
     inkscape:cy="12.424081"
     inkscape:window-x="-8"
     inkscape:window-y="-8"
     inkscape:window-maximized="1"
     inkscape:current-layer="layer4" />
  <defs
     id="defs2">
    <linearGradient
       spreadMethod="pad"
       gradientUnits="userSpaceOnUse"
       y2="593.78698"
       y1="3.6658269"
       x2="590.86259"
       x1="0.74144253"
       id="gradientFill-1"
       gradientTransform="matrix(0.02541851,0,0,0.01702349,14.052869,7.2069643)">
      <stop
         id="stop2"
         stop-opacity="1"
         stop-color="rgb(203,206,208)"
         offset="0" />
      <stop
         id="stop4"
         stop-opacity="1"
         stop-color="rgb(132,131,139)"
         offset="1" />
    </linearGradient>
    <linearGradient
       spreadMethod="pad"
       gradientUnits="userSpaceOnUse"
       y2="553.44209"
       y1="151.40061"
       x2="703.06751"
       x1="301.02603"
       id="gradientFill-2"
       gradientTransform="matrix(0.02059262,0,0,0.02101296,5.2597014,10.200383)">
      <stop
         id="stop7"
         stop-opacity="1"
         stop-color="rgb(39,109,195)"
         offset="0" />
      <stop
         id="stop9"
         stop-opacity="1"
         stop-color="rgb(22,92,170)"
         offset="1" />
    </linearGradient>
  </defs>
  <metadata
     id="metadata5">
    <rdf:RDF>
      <cc:Work
         rdf:about="">
        <dc:format>image/svg+xml</dc:format>
        <dc:type
           rdf:resource="http://purl.org/dc/dcmitype/StillImage" />
        <dc:title />
      </cc:Work>
    </rdf:RDF>
  </metadata>
  <g
     transform="translate(0,-246.20002)"
     style="display:inline"
     id="layer1">
    <path
       transform="matrix(0.96129681,0,0,0.96335717,-63.959602,170.53182)"
       style="fill:#f2f2f2;fill-opacity:1;stroke:#d40000;stroke-width:1.67302896;stroke-miterlimit:4;stroke-dasharray:none;stroke-opacity:1"
       d="m 89.368447,130.31249 -21.997045,-12.7 -10e-7,-25.399998 21.997045,-12.700001 21.997044,12.699999 0,25.4 z"
       id="path3733" />
  </g>
  <g
     transform="translate(0,-246.20002)"
     style="display:none"
     id="layer2">
    <path
       id="path3735"
       d="m 89.368447,130.31249 -21.997045,-12.7 -10e-7,-25.399998 21.997045,-12.700001 21.997044,12.699999 0,25.4 z"
       style="fill:#ffffff;fill-opacity:1;stroke-width:0.16493505"
       transform="matrix(0.92512425,0,0,0.92716537,-60.726917,174.32879)" />
    <path
       id="path3739"
       d="M 11.589965,289.4583 1.3234747,283.50728 v -11.93584 -11.93583 l 10.1729463,-5.88226 c 5.59512,-3.23524 10.237906,-5.92127 10.317302,-5.96895 0.108688,-0.0653 2.691527,1.3869 10.453578,5.87744 l 10.309225,5.96414 v 11.94512 11.94513 l -10.292001,5.95496 c -5.660598,3.27523 -10.322615,5.95117 -10.360033,5.94654 -0.03742,-0.005 -4.687957,-2.68638 -10.334527,-5.95943 z"
       style="opacity:0;fill:#001a34;fill-opacity:0;stroke-width:0.09354433" />
    <path
       id="path4546"
       d="M 11.589965,289.4583 1.3234747,283.50728 v -11.93584 -11.93583 l 10.1729463,-5.88226 c 5.59512,-3.23524 10.237906,-5.92127 10.317302,-5.96895 0.108688,-0.0653 2.691527,1.3869 10.453578,5.87744 l 10.309225,5.96414 v 11.94512 11.94513 l -10.292001,5.95496 c -5.660598,3.27523 -10.322615,5.95117 -10.360033,5.94654 -0.03742,-0.005 -4.687957,-2.68638 -10.334527,-5.95943 z"
       style="opacity:0;fill:#001a34;fill-opacity:0;stroke-width:0.09354433" />
    <path
       id="path4548"
       d="M 11.589965,289.4583 1.3234747,283.50728 v -11.93584 -11.93583 l 10.1729463,-5.88226 c 5.59512,-3.23524 10.237906,-5.92127 10.317302,-5.96895 0.108688,-0.0653 2.691527,1.3869 10.453578,5.87744 l 10.309225,5.96414 v 11.94512 11.94513 l -10.292001,5.95496 c -5.660598,3.27523 -10.322615,5.95117 -10.360033,5.94654 -0.03742,-0.005 -4.687957,-2.68638 -10.334527,-5.95943 z"
       style="opacity:0;fill:#001a34;fill-opacity:0;stroke-width:0.09354433" />
    <path
       id="path4550"
       d="M 11.589965,289.4583 1.3234747,283.50728 v -11.93584 -11.93583 l 10.1729463,-5.88226 c 5.59512,-3.23524 10.237906,-5.92127 10.317302,-5.96895 0.108688,-0.0653 2.691527,1.3869 10.453578,5.87744 l 10.309225,5.96414 v 11.94512 11.94513 l -10.292001,5.95496 c -5.660598,3.27523 -10.322615,5.95117 -10.360033,5.94654 -0.03742,-0.005 -4.687957,-2.68638 -10.334527,-5.95943 z"
       style="opacity:0;fill:#006f34;fill-opacity:0;stroke-width:0.09354433" />
    <path
       id="path4552"
       d="M 11.589965,289.4583 1.3234747,283.50728 v -11.93584 -11.93583 l 10.1729463,-5.88226 c 5.59512,-3.23524 10.237906,-5.92127 10.317302,-5.96895 0.108688,-0.0653 2.691527,1.3869 10.453578,5.87744 l 10.309225,5.96414 v 11.94512 11.94513 l -10.292001,5.95496 c -5.660598,3.27523 -10.322615,5.95117 -10.360033,5.94654 -0.03742,-0.005 -4.687957,-2.68638 -10.334527,-5.95943 z"
       style="opacity:0;fill:#001a34;fill-opacity:1;stroke-width:0.09354433" />
    <path
       id="path4554"
       d="M 11.589965,289.4583 1.3234747,283.50728 v -11.93584 -11.93583 l 10.1729463,-5.88226 c 5.59512,-3.23524 10.237906,-5.92127 10.317302,-5.96895 0.108688,-0.0653 2.691527,1.3869 10.453578,5.87744 l 10.309225,5.96414 v 11.94512 11.94513 l -10.292001,5.95496 c -5.660598,3.27523 -10.322615,5.95117 -10.360033,5.94654 -0.03742,-0.005 -4.687957,-2.68638 -10.334527,-5.95943 z"
       style="opacity:0;fill:#001a34;fill-opacity:1;stroke-width:0.09354433" />
    <path
       id="path4556"
       d="M 11.589965,289.4583 1.3234747,283.50728 v -11.93584 -11.93583 l 10.1729463,-5.88226 c 5.59512,-3.23524 10.237906,-5.92127 10.317302,-5.96895 0.108688,-0.0653 2.691527,1.3869 10.453578,5.87744 l 10.309225,5.96414 v 11.94512 11.94513 l -10.292001,5.95496 c -5.660598,3.27523 -10.322615,5.95117 -10.360033,5.94654 -0.03742,-0.005 -4.687957,-2.68638 -10.334527,-5.95943 z"
       style="opacity:0;fill:#001a34;fill-opacity:1;stroke-width:0.09354433" />
    <path
       id="path4558"
       d="m 11.590091,289.47028 -10.2664912,-5.95288 0.00145,-11.93003 0.00145,-11.93003 10.2585572,-5.93227 c 5.642205,-3.26275 10.30675,-5.93227 10.365654,-5.93227 0.0589,0 4.723198,2.66952 10.365094,5.93227 l 10.257996,5.93227 0.0013,11.93032 0.0013,11.93032 -10.256523,5.93665 c -5.641083,3.26515 -10.3031,5.94382 -10.360034,5.95259 -0.05693,0.009 -4.723435,-2.66285 -10.370005,-5.93694 z"
       style="opacity:0;fill:#001a34;fill-opacity:1;stroke-width:0.09354433" />
    <path
       id="path4560"
       d="m 11.590091,289.47028 -10.2664912,-5.95288 0.00145,-11.93003 0.00145,-11.93003 10.2585572,-5.93227 c 5.642205,-3.26275 10.30675,-5.93227 10.365654,-5.93227 0.0589,0 4.723198,2.66952 10.365094,5.93227 l 10.257996,5.93227 0.0013,11.93032 0.0013,11.93032 -10.256523,5.93665 c -5.641083,3.26515 -10.3031,5.94382 -10.360034,5.95259 -0.05693,0.009 -4.723435,-2.66285 -10.370005,-5.93694 z"
       style="opacity:0;fill:#001a34;fill-opacity:1;stroke-width:0.09354433" />
    <path
       id="path4562"
       d="m 11.590091,289.47028 -10.2664912,-5.95288 0.00145,-11.93003 0.00145,-11.93003 10.2585572,-5.93227 c 5.642205,-3.26275 10.30675,-5.93227 10.365654,-5.93227 0.0589,0 4.723198,2.66952 10.365094,5.93227 l 10.257996,5.93227 0.0013,11.93032 0.0013,11.93032 -10.256523,5.93665 c -5.641083,3.26515 -10.3031,5.94382 -10.360034,5.95259 -0.05693,0.009 -4.723435,-2.66285 -10.370005,-5.93694 z"
       style="opacity:0;fill:#001a34;fill-opacity:1;stroke-width:0.09354433" />
  </g>
  <g
     id="layer3">
    <path
       style="display:inline;fill:#d40000;stroke-width:0.07494193"
       d="m 30.698916,43.86135 c 0.517002,-1.80956 0.436687,-3.568007 -0.239326,-5.240719 -0.216458,-0.535556 -0.965353,-1.375179 -1.51383,-1.697229 -1.484462,-0.871599 -3.595856,-0.658645 -5.775849,0.582618 -0.570823,0.325106 -1.054711,0.561625 -1.075162,0.525753 -0.02044,-0.03586 0.140667,-0.784293 0.358071,-1.663138 0.561992,-2.272052 1.20254,-3.56363 1.986728,-4.005862 0.789344,-0.444983 1.731994,-0.338858 3.103096,0.349939 1.236791,0.621318 1.762749,1.117178 2.585398,2.43715 0.752117,1.206893 1.256046,2.350826 1.382117,3.137462 0.08833,0.551199 0.113388,2.807727 0.04062,3.665955 -0.02469,0.291607 -0.138962,0.917704 -0.253873,1.391355 -0.182719,0.752813 -0.245633,0.882035 -0.50003,1.027067 l -0.291046,0.165925 0.193211,-0.676267 z m 1.940368,-1.265442 c 0.02827,-0.417811 0.01419,-1.36926 -0.03133,-2.114354 C 32.481987,38.417873 32.0388,36.850168 31.006494,34.816834 30.118173,33.067088 29.21016,31.819419 26.40567,28.49493 l -0.91834,-1.088574 0.500866,-1.706673 c 0.555045,-1.892324 1.888561,-6.008363 1.981175,-6.115253 0.03221,-0.03732 1.309051,0.766377 2.836228,1.786745 l 2.777247,1.854876 -0.12725,1.036558 c -0.07,0.570097 -0.216407,1.579792 -0.325396,2.243705 -0.71049,4.32882 -0.657348,8.132146 0.154112,11.045517 0.119393,0.428622 0.457284,1.148702 1.121464,2.389944 l 0.950568,1.77645 -1.384462,0.818781 -1.384463,0.818781 0.05139,-0.759666 z m 4.031669,-1.650127 c -0.202461,0.07795 -0.297599,0.03912 -0.589327,-0.240361 -1.009227,-0.966885 -1.936393,-2.549733 -2.359693,-4.028453 -0.233082,-0.81422 -0.380979,-2.159921 -0.341079,-3.103463 0.09701,-2.294318 0.898293,-4.984016 1.909526,-6.409802 0.290541,-0.409644 0.448966,-0.540822 1.111107,-0.919977 0.923216,-0.528838 1.315873,-0.575176 2.247319,-0.266117 0.713799,0.236819 1.885205,1.010881 2.446561,1.616648 l 0.401529,0.433324 -1.113883,0.635023 c -2.49476,1.422263 -3.993668,2.870569 -4.702676,4.543977 -0.151711,0.358063 -0.444012,1.22353 -0.649555,1.923258 -0.703152,2.393506 -0.380027,3.34221 1.878242,5.514692 0.0871,0.08379 0.123494,0.164948 0.08088,0.180354 -0.04263,0.01539 -0.186132,0.06984 -0.318927,0.120939 z"
       id="path3399" />
    <g
       transform="matrix(1.2074805,0,0,1.2074805,-4.0974254,-3.9081928)"
       id="g866">
      <path
         style="fill:url(#gradientFill-1);fill-rule:evenodd;stroke-width:0.02080173"
         d="m 21.571716,17.315293 c -4.142124,0 -7.500001,-2.248854 -7.500001,-5.022951 0,-2.7741197 3.357877,-5.0229727 7.500001,-5.0229727 4.142143,0 7.5,2.248853 7.5,5.0229727 0,2.774097 -3.357857,5.022951 -7.5,5.022951 z m 1.148005,-8.0821167 c -3.148382,0 -5.700651,1.5374137 -5.700651,3.4339087 0,1.896493 2.552269,3.433908 5.700651,3.433908 3.148362,0 5.471812,-1.051091 5.471812,-3.433908 0,-2.382069 -2.32345,-3.4339087 -5.471812,-3.4339087 z"
         id="path14" />
      <path
         style="fill:#d40000;fill-rule:evenodd;stroke-width:0.02080173"
         d="m 25.493819,15.049215 c 0,0 0.453935,0.13698 0.71766,0.270423 0.09151,0.0463 0.249828,0.138706 0.36403,0.260021 0.111871,0.11882 0.166414,0.23922 0.166414,0.23922 l 1.788948,3.016251 -2.89144,0.0013 -1.352112,-2.539101 c 0,0 -0.276871,-0.475715 -0.447237,-0.613651 -0.142118,-0.115054 -0.202713,-0.156013 -0.343229,-0.156013 -0.09781,0 -0.686998,0 -0.686998,0 l 5.63e-4,3.306933 -2.558612,0.0011 v -8.447323 h 5.138016 c 0,0 2.340195,0.04221 2.340195,2.268679 0,2.226471 -2.236186,2.392198 -2.236186,2.392198 z m -1.112893,-2.828535 -1.548958,-10e-4 -7.88e-4,1.436359 1.549729,-4.87e-4 c 0,0 0.71766,-0.0022 0.71766,-0.730661 0,-0.743079 -0.71766,-0.704201 -0.71766,-0.704201 z"
         id="path16" />
    </g>
    <text
       id="text860"
       y="28.919029"
       x="3.4215865"
       style="font-style:normal;font-weight:normal;font-size:10.58333302px;line-height:1.25;font-family:'Harlow Solid Italic';letter-spacing:0px;word-spacing:0px;fill:#d40000;fill-opacity:1;stroke:none;stroke-width:0.26458332;-inkscape-font-specification:'Harlow Solid Italic, ';font-stretch:normal;font-variant:normal;"
       xml:space="preserve"><tspan
         style="font-style:normal;font-variant:normal;font-weight:normal;font-stretch:normal;font-family:'Harlow Solid Italic';-inkscape-font-specification:'Harlow Solid Italic, ';fill:#d40000;stroke-width:0.26458332;"
         y="28.919029"
         x="3.4215865"
         id="tspan858">Lille</tspan></text>
  </g>
  <g
     inkscape:groupmode="layer"
     id="layer4"
     inkscape:label="text"
     style="display:none">
    <text
       xml:space="preserve"
       style="font-style:normal;font-variant:normal;font-weight:normal;font-stretch:normal;font-size:1.84143448px;line-height:1.25;font-family:'Harlow Solid Italic';-inkscape-font-specification:'Harlow Solid Italic, ';letter-spacing:0px;word-spacing:0px;fill:#b8babe;fill-opacity:1;stroke:none;stroke-width:0.04603585"
       x="-4.9851155"
       y="53.220448"
       id="text4551"
       transform="rotate(-30.022354)"><tspan
         sodipodi:role="line"
         id="tspan4549"
         x="-4.9851155"
         y="53.220448"
         style="font-style:normal;font-variant:normal;font-weight:normal;font-stretch:normal;font-family:'Harlow Solid Italic';-inkscape-font-specification:'Harlow Solid Italic, ';fill:#b8babe;fill-opacity:1;stroke-width:0.04603585">www.rlille.fr</tspan></text>
  </g>
</svg>
